<svg xmlns="http://www.w3.org/2000/svg" fill="none" viewBox="90 90 570 570">
<circle cx="375" cy="375" r="285" fill="#6CBF45"/>
<path d="M308.018 338.465C304.6 323.719 296.25 313.416 282.969 307.557C275.547 304.334 267.295 302.723 258.213 302.723C240.83 302.723 226.523 309.314 215.293 322.498C204.16 335.584 198.594 355.311 198.594 381.678C198.594 408.24 204.648 427.039 216.758 438.074C228.867 449.109 242.637 454.627 258.066 454.627C273.203 454.627 285.605 450.281 295.273 441.59C304.941 432.801 310.898 421.326 313.145 407.166H263.193V371.131H353.135V487H323.252L318.711 460.047C310.02 470.301 302.207 477.527 295.273 481.727C283.359 489.051 268.711 492.713 251.328 492.713C222.715 492.713 199.277 482.801 181.016 462.977C161.973 443.055 152.451 415.809 152.451 381.238C152.451 346.277 162.07 318.25 181.309 297.156C200.547 276.062 225.986 265.516 257.627 265.516C285.068 265.516 307.09 272.498 323.691 286.463C340.391 300.33 349.961 317.664 352.402 338.465H308.018ZM541.514 338.465C538.096 323.719 529.746 313.416 516.465 307.557C509.043 304.334 500.791 302.723 491.709 302.723C474.326 302.723 460.02 309.314 448.789 322.498C437.656 335.584 432.09 355.311 432.09 381.678C432.09 408.24 438.145 427.039 450.254 438.074C462.363 449.109 476.133 454.627 491.562 454.627C506.699 454.627 519.102 450.281 528.77 441.59C538.438 432.801 544.395 421.326 546.641 407.166H496.689V371.131H586.631V487H556.748L552.207 460.047C543.516 470.301 535.703 477.527 528.77 481.727C516.855 489.051 502.207 492.713 484.824 492.713C456.211 492.713 432.773 482.801 414.512 462.977C395.469 443.055 385.947 415.809 385.947 381.238C385.947 346.277 395.566 318.25 414.805 297.156C434.043 276.062 459.482 265.516 491.123 265.516C518.564 265.516 540.586 272.498 557.188 286.463C573.887 300.33 583.457 317.664 585.898 338.465H541.514Z" fill="white"/>
</svg>